<svg xmlns="http://www.w3.org/2000/svg" fill="none" viewBox="0 0 48 48">
  <path d="M24 0C10.762 0 0 10.762 0 24c0 13.237 10.762 24 24 24 13.237 0 24-10.763 24-24C48 10.762 37.237 0 24 0z" fill="#FF5A5F"/>
  <path d="M24 30.32c-1.573-1.98-2.499-3.714-2.808-5.198-.308-1.207-.185-2.165.34-2.877.555-.835 1.388-1.237 2.468-1.237s1.913.402 2.468 1.237c.525.712.648 1.67.34 2.877-.34 1.515-1.265 3.247-2.808 5.198zm8.614 4.577c-2.622 1.144-5.217-.68-7.438-3.154 3.674-4.611 4.353-8.199 2.776-10.521-.925-1.33-2.252-1.98-3.952-1.98-3.425 0-5.31 2.907-4.57 6.281.433 1.825 1.574 3.9 3.395 6.22-1.366 1.516-3.157 3.237-5.307 3.432-3.116.464-5.557-2.566-4.446-5.693l7.901-16.397c.675-1.232 1.507-2.288 3.024-2.288 1.11 0 1.974.65 2.345 1.175l8.58 17.51c.84 2.116-.226 4.514-2.308 5.415zm3.98-6.034L29.248 13.55C27.86 10.704 26.872 9 24 9c-2.838 0-4.045 1.98-5.279 4.55l-7.315 15.313C9.833 33.197 13.072 37 16.993 37c.247 0 .492-.03.74-.03 2.037-.248 4.138-1.547 6.267-3.87 2.129 2.32 4.23 3.622 6.266 3.87.249 0 .494.03.74.03 3.922.003 7.161-3.804 5.588-8.137z" fill="#fff"/>
</svg>
