<svg xmlns="http://www.w3.org/2000/svg" fill="none" viewBox="0 0 48 48">
  <circle cx="24" cy="24" r="24" fill="#fff"/>
  <path fill-rule="evenodd" clip-rule="evenodd" d="M26.094 8.959l-.386 17.468c.745.122 1.607.154 2.46.257.633-5.87 1.157-11.666 1.84-17.442l-3.914-.283zm-9.507.106c-.175 0-.351.005-.528.011l.17 3.772a7.65 7.65 0 011.864.17c.968.205 2.002.638 2.125 1.728.188 1.685-1.328 2.86-3.22 2.92l.108 2.082c1.229.067 2.597.426 3.23 1.305.209.29.358.69.36 1.184.004.818-.423 1.615-1.007 2.11-.73.62-1.92.874-3.08.809l-.013 1.374c3.235.072 6.295-.748 7.404-2.963.268-.533.522-1.352.515-2.012-.016-1.137-.524-1.886-1.048-2.365-.65-.596-1.502-.971-2.353-1.23 1.649-.761 3.18-2.064 2.915-4.256a4.895 4.895 0 00-.977-2.374c-1.365-1.735-3.832-2.285-6.465-2.265z" fill="#DE5B9E"/>
  <path fill-rule="evenodd" clip-rule="evenodd" d="M15.421 9.768l-4.463.724c1.01 5.403 2.08 10.56 3.09 15.877.627-.032 1.233-.04 1.868-.081-.193-5.432-.286-11.347-.495-16.52zm15.024.067l-.375 4.033c.966.215 1.996.595 2.466 1.414.438.761.261 1.826-.158 2.375-.575.755-1.68 1.202-2.809 1.491-.095.695-.163 1.412-.268 2.1l3.252 5.186 2.087-.382-2.013-5.386c2.073-.84 3.645-2.162 4.167-4.132.54-2.046-.205-4.066-1.47-5.13-1.213-1.018-3-1.48-4.879-1.569zm-5.334 17.48c-.074 1.958-.232 3.852-.326 5.797l2.09-2.02 1.108 1.554.925-.631-1.24-1.689 1.044-1.008a12.99 12.99 0 01-.764-.671l-1.933 1.877c.07-1.055.175-2.08.212-3.158l-1.116-.051zm4.782.535c-.366.02-.65.31-.634.655.017.342.327.608.692.591.368-.018.65-.312.634-.654-.014-.345-.326-.608-.692-.591zm-16.005.04l-1.09.15.724 5.349 1.09-.147-.059-.43c.324.137.69.19 1.065.141 1.098-.149 1.874-1.132 1.73-2.194-.142-1.06-1.152-1.8-2.25-1.653a2.05 2.05 0 00-.989.419l-.22-1.635zm10.285.696c-.021.003-.044.005-.065.01-.936.307-1.892.733-1.608 1.798.069.256.256.6.389.887.149.322.392.638.39.89-.006.414-.537.62-.916.696.128.207.201.487.33.694.73-.149 1.326-.46 1.592-.92.33-.577-.035-1.092-.291-1.642-.112-.242-.401-.773-.403-.99-.003-.4.503-.638.882-.691-.009-.212-.214-.492-.3-.732zm7.348.117l-.2 4.283 1.122.047.068-1.868 2.55 2.592.2-4.283-1.122-.047-.068 1.866-2.55-2.59zm-10.705.71l-.002.452a2.05 2.05 0 00-1.01-.368c-1.103-.093-2.074.699-2.163 1.765-.09 1.067.735 2.01 1.84 2.104.377.03.739-.042 1.055-.194l-.036.431 1.096.091.315-4.188-1.095-.093zm9.718 0l-1.123.038.116 3.59 1.125-.036-.119-3.592zm-15.1.718c.447.025.825.34.883.768.066.492-.31.95-.839 1.02-.528.072-1.012-.27-1.079-.759-.066-.491.31-.95.839-1.022a1.37 1.37 0 01.196-.007zm4.284.405c.531.044.93.482.889.976-.042.493-.508.86-1.04.815-.531-.044-.93-.482-.889-.976.042-.494.508-.86 1.04-.815zm4.688 2.792l-.992.028.137 4.873.992-.028-.011-.392c.277.154.6.238.943.229.999-.028 1.79-.836 1.763-1.803-.026-.964-.862-1.728-1.861-1.7a1.86 1.86 0 00-.93.28l-.041-1.487zm3.929 0c-.335-.018-.622.212-.64.517-.02.306.237.569.57.59.335.02.62-.21.64-.515.02-.305-.237-.57-.57-.592zm1.11.215l-.09 4.252 1.069.045-.021-1.73 2.401 2.552.114-4.1-.992-.02-.065 1.774-2.415-2.773zm-9.898.528l-.132 4.875.993.026.01-.392c.27.168.587.27.929.28 1 .028 1.834-.736 1.86-1.703.026-.964-.766-1.772-1.766-1.8a1.835 1.835 0 00-.941.23l.04-1.488-.993-.028zm-5.233.06l-1.24.113.418 4.541 1.218-.11-.169-1.83c-.105-.836.232-1.56 1.107-1.453l-.095-1.125c-.403-.077-1.037.156-1.2.34l-.039-.475zm20.745.029c-.85.142-1.542.533-1.689 1.132-.123.512.21.978.394 1.418.114.275.4.773.405 1.015.005.434-.515.613-.878.688.086.263.189.5.298.729.706-.112 1.242-.385 1.502-.771.385-.571-.011-1.3-.254-1.873-.142-.338-.37-.715-.363-.955.014-.421.536-.577.883-.654-.084-.266-.205-.48-.298-.73zm-7.348.417l-.198 3.218 1.008.063.198-3.218-1.008-.063zm8.74.363a.87.87 0 00-.31.08.842.842 0 00-.473.694.838.838 0 00.367.75.871.871 0 00.407.139.864.864 0 00.422-.082.833.833 0 00.384-1.116.762.762 0 00-.289-.328.823.823 0 00-.508-.137zm-19.253.116c-.063.003-.126.01-.19.017-1.011.137-1.73 1.027-1.6 1.984.13.955 1.058 1.623 2.07 1.486 1.012-.137 1.73-1.027 1.6-1.982-.12-.897-.944-1.54-1.88-1.505zm19.349.052a.693.693 0 01.324.107.679.679 0 01.298.606.71.71 0 01-.112.325.647.647 0 01-.266.229.66.66 0 01-.663-.047.626.626 0 01-.228-.263.685.685 0 01-.066-.338.687.687 0 01.114-.33.664.664 0 01.599-.289zm-.391.205l-.063.875.18.014.025-.36.046.004c.05.002.091.019.121.047.03.025.068.088.11.188l.063.147.223.016-.09-.186c-.033-.065-.054-.1-.059-.11a.389.389 0 00-.056-.072.167.167 0 00-.058-.037.28.28 0 00.18-.072.245.245 0 00-.028-.375.328.328 0 00-.136-.044 4.157 4.157 0 00-.281-.024l-.177-.011zm.167.151l.075.005c.1.007.163.016.189.025a.13.13 0 01.058.047.105.105 0 01.016.065.117.117 0 01-.028.068.108.108 0 01-.06.037 1.05 1.05 0 01-.194-.002l-.072-.005.016-.24zm-10.92.012c.482-.014.882.337.896.787.012.447-.37.82-.85.834-.482.014-.885-.338-.897-.785-.013-.447.369-.822.85-.836zm-8.082.489c.436.02.802.314.856.717a.79.79 0 01-.183.613.988.988 0 01-.638.347c-.515.07-.985-.247-1.047-.708-.062-.46.306-.89.822-.96.064-.01.128-.012.19-.01zm4.095.333c.482.014.863.386.851.834-.012.45-.413.8-.895.79-.481-.015-.863-.39-.85-.837.011-.447.413-.801.894-.787z" fill="#005EA6"/>
</svg>
