<svg xmlns="http://www.w3.org/2000/svg" fill="none" viewBox="0 0 48 48">
  <path fill-rule="evenodd" clip-rule="evenodd" d="M27.262 5.793C26.06 2.997 24.582.863 24 0c-.585.863-2.06 2.997-3.262 5.793C21.916 7.039 23.075 8.506 24 10.17c.922-1.665 2.087-3.132 3.262-4.378zm-6.523 36.416c1.2 2.793 2.676 4.928 3.261 5.791.582-.862 2.06-2.995 3.262-5.791-1.175-1.25-2.34-2.717-3.262-4.381-.925 1.664-2.084 3.131-3.261 4.38z" fill="#00A330"/>
  <path fill-rule="evenodd" clip-rule="evenodd" d="M20.739 5.793c-2.097-2.226-4.226-3.733-5.073-4.345-.252 1.006-.896 3.51-1.052 6.542 1.535.775 3.139 1.764 4.584 3.014.29-1.875.871-3.646 1.54-5.211zm6.523 36.416c2.093 2.223 4.226 3.728 5.074 4.344.249-1.008.895-3.511 1.05-6.54-1.534-.776-3.138-1.767-4.584-3.018-.29 1.875-.872 3.646-1.54 5.214zM14.614 7.99c-2.742-1.383-5.267-2.083-6.277-2.376.113 1.033.375 3.602 1.283 6.503 1.71.208 3.56.599 5.354 1.29-.38-1.86-.448-3.722-.36-5.417zm18.772 32.023c2.742 1.382 5.266 2.08 6.277 2.372-.111-1.031-.376-3.6-1.283-6.501-1.71-.21-3.56-.602-5.356-1.293.382 1.863.45 3.723.362 5.422zM11.84 17.087c-1-1.621-1.712-3.348-2.22-4.97-3.06-.378-5.672-.184-6.725-.117.465.93 1.605 3.255 3.461 5.677 1.684-.38 3.559-.635 5.484-.59zm24.318 13.827c1.004 1.62 1.717 3.349 2.222 4.97 3.06.376 5.673.182 6.726.12-.467-.935-1.603-3.261-3.464-5.684-1.682.381-3.554.638-5.484.594zM6.356 17.677C3.354 18.353.965 19.414 0 19.832c.762.715 2.639 2.519 5.227 4.168 1.446-.92 3.119-1.796 4.944-2.401-1.504-1.188-2.77-2.57-3.815-3.922zM42.77 24c-1.445.923-3.117 1.795-4.942 2.402 1.503 1.185 2.774 2.566 3.815 3.918 3.005-.675 5.395-1.735 6.357-2.152-.762-.716-2.64-2.523-5.23-4.168zm-32.599 2.402c-1.825-.607-3.498-1.48-4.944-2.402C2.64 25.645.762 27.452 0 28.168c.965.417 3.354 1.477 6.356 2.152 1.044-1.351 2.311-2.733 3.815-3.918zm27.657-4.803c1.825.605 3.496 1.48 4.943 2.401 2.59-1.649 4.467-3.453 5.229-4.168-.962-.418-3.352-1.48-6.358-2.155-1.04 1.353-2.311 2.734-3.814 3.922zM6.356 30.32C4.5 32.743 3.36 35.07 2.895 36.003c1.053.063 3.665.257 6.724-.12.509-1.62 1.22-3.348 2.221-4.969-1.925.044-3.8-.213-5.484-.594zm35.286-12.643c1.861-2.422 2.997-4.748 3.464-5.68-1.053-.064-3.666-.258-6.726.12-.505 1.622-1.218 3.35-2.222 4.97 1.93-.045 3.802.21 5.484.59zM14.974 34.59c-1.795.692-3.643 1.082-5.354 1.294-.908 2.9-1.17 5.47-1.283 6.5 1.01-.29 3.535-.99 6.277-2.371-.088-1.699-.02-3.559.36-5.422z" fill="#00A330"/>
  <path fill-rule="evenodd" clip-rule="evenodd" d="M33.024 13.407c1.796-.692 3.645-1.082 5.356-1.29.907-2.9 1.172-5.47 1.283-6.503-1.011.29-3.535.99-6.277 2.373.088 1.698.02 3.556-.362 5.42zm-18.41 26.606c.156 3.028.8 5.531 1.052 6.54.847-.616 2.976-2.12 5.073-4.344-.67-1.568-1.25-3.339-1.541-5.214-1.445 1.25-3.05 2.242-4.584 3.018z" fill="#00A330"/>
  <path fill-rule="evenodd" clip-rule="evenodd" d="M33.386 7.987c-.155-3.03-.801-5.533-1.05-6.54-.848.613-2.98 2.12-5.074 4.346.668 1.562 1.25 3.336 1.54 5.211 1.446-1.25 3.05-2.242 4.584-3.017z" fill="#00A330"/>
  <path fill-rule="evenodd" clip-rule="evenodd" d="M22.329 14.671c.308-1.623.908-3.128 1.671-4.5-.924-1.665-2.084-3.132-3.261-4.378-.67 1.565-1.25 3.336-1.541 5.211 1.193 1.035 2.281 2.246 3.131 3.667zm3.343 18.659c-.31 1.622-.908 3.125-1.672 4.498.922 1.664 2.087 3.131 3.262 4.38.668-1.567 1.25-3.338 1.54-5.213-1.192-1.034-2.281-2.246-3.13-3.665zM14.974 13.407c1.48.568 2.921 1.34 4.215 2.387-.272-1.626-.233-3.242.009-4.79-1.445-1.25-3.05-2.239-4.584-3.014-.088 1.695-.02 3.558.36 5.417zm18.05 21.183c-1.478-.565-2.919-1.34-4.212-2.384.273 1.626.23 3.24-.01 4.789 1.446 1.25 3.05 2.242 4.584 3.018.088-1.699.02-3.559-.362-5.422z" fill="#3BBD00"/>
  <path fill-rule="evenodd" clip-rule="evenodd" d="M16.632 17.91c-.825-1.437-1.344-2.97-1.658-4.503-1.794-.691-3.643-1.082-5.354-1.29.508 1.621 1.22 3.349 2.22 4.97 1.585.034 3.212.276 4.792.823zm14.737 12.179c.821 1.436 1.345 2.969 1.655 4.502 1.796.691 3.645 1.082 5.356 1.293-.505-1.621-1.218-3.35-2.222-4.97-1.586-.036-3.21-.277-4.789-.825zm-21.198-8.49c1.505-.503 3.115-.823 4.79-.84-1.273-1.074-2.298-2.337-3.121-3.672-1.926-.045-3.8.21-5.484.59C7.4 19.03 8.667 20.411 10.171 21.6zm27.657 4.803c-1.506.499-3.113.82-4.789.837 1.273 1.072 2.297 2.338 3.119 3.675 1.93.044 3.802-.213 5.484-.594-1.04-1.352-2.311-2.733-3.814-3.918z" fill="#3BBD00"/>
  <path fill-rule="evenodd" clip-rule="evenodd" d="M14.379 24c-1.567-.58-2.967-1.426-4.207-2.401-1.826.605-3.499 1.48-4.945 2.4 1.446.924 3.119 1.796 4.944 2.403 1.241-.98 2.641-1.824 4.208-2.402zm19.241 0c1.569.578 2.968 1.422 4.208 2.402 1.825-.607 3.497-1.48 4.943-2.402-1.446-.92-3.118-1.796-4.943-2.401-1.24.975-2.639 1.822-4.208 2.4zm-21.78 6.914c.823-1.337 1.848-2.603 3.121-3.675-1.675-.016-3.285-.337-4.79-.837-1.504 1.185-2.771 2.567-3.815 3.918 1.684.381 3.559.638 5.484.594zm24.318-13.827c-.822 1.335-1.846 2.598-3.119 3.673 1.676.016 3.283.336 4.789.839 1.503-1.188 2.773-2.57 3.814-3.922-1.682-.38-3.554-.635-5.484-.59zM16.632 30.089c-1.58.549-3.207.79-4.792.825-1 1.62-1.712 3.349-2.22 4.97 1.71-.212 3.56-.602 5.354-1.293.314-1.533.833-3.066 1.658-4.502zM31.369 17.91c1.58-.546 3.203-.79 4.789-.823 1.004-1.621 1.717-3.348 2.222-4.97-1.71.208-3.56.598-5.356 1.29-.31 1.534-.834 3.066-1.655 4.503zm-9.04 15.42c-.85 1.419-1.938 2.63-3.131 3.665.29 1.875.87 3.646 1.54 5.214 1.178-1.25 2.338-2.717 3.262-4.381-.763-1.373-1.363-2.876-1.671-4.498z" fill="#3BBD00"/>
  <path fill-rule="evenodd" clip-rule="evenodd" d="M19.189 32.206c-1.294 1.045-2.736 1.82-4.215 2.384-.38 1.864-.448 3.724-.36 5.423 1.535-.776 3.139-1.768 4.584-3.018-.242-1.55-.28-3.164-.01-4.789zm6.483-17.535c.849-1.42 1.938-2.634 3.13-3.667-.29-1.875-.872-3.649-1.54-5.211-1.175 1.246-2.34 2.713-3.262 4.378.765 1.372 1.361 2.877 1.672 4.5zm3.14 1.123c1.293-1.047 2.734-1.82 4.213-2.387.38-1.864.449-3.722.362-5.42-1.535.775-3.139 1.767-4.585 3.017.24 1.548.284 3.164.01 4.79z" fill="#3BBD00"/>
  <path fill-rule="evenodd" clip-rule="evenodd" d="M22.336 19.501a12.812 12.812 0 01-.007-4.83c-.85-1.42-1.938-2.632-3.131-3.667-.242 1.548-.28 3.164-.01 4.79a12.949 12.949 0 013.148 3.707zm3.327 8.999c.328 1.7.296 3.315.009 4.83.849 1.419 1.938 2.63 3.13 3.665.24-1.55.284-3.163.01-4.789a13.064 13.064 0 01-3.149-3.706z" fill="#FFE400"/>
  <path fill-rule="evenodd" clip-rule="evenodd" d="M19.189 15.794c-1.294-1.046-2.736-1.82-4.215-2.387.314 1.534.833 3.066 1.658 4.503 1.475.51 2.91 1.292 4.242 2.419a12.87 12.87 0 01-1.685-4.535zm9.623 16.412c1.293 1.045 2.734 1.82 4.212 2.384-.31-1.532-.834-3.065-1.655-4.501a13.314 13.314 0 01-4.246-2.42 12.781 12.781 0 011.689 4.537zM19.79 21.605a12.896 12.896 0 01-3.158-3.695c-1.58-.546-3.207-.79-4.792-.823.823 1.335 1.848 2.598 3.121 3.672 1.56-.018 3.182.234 4.829.846zm8.42 4.789a12.975 12.975 0 013.159 3.695c1.58.549 3.203.79 4.789.825-.822-1.337-1.846-2.603-3.119-3.675a13.277 13.277 0 01-4.828-.845z" fill="#FFE400"/>
  <path fill-rule="evenodd" clip-rule="evenodd" d="M19.212 23.169a13.183 13.183 0 01-4.25-2.41c-1.676.017-3.286.337-4.79.84 1.24.975 2.64 1.822 4.207 2.4a13.326 13.326 0 014.833-.83zm9.578 1.658a13.29 13.29 0 014.25 2.412c1.675-.016 3.282-.338 4.788-.837-1.24-.98-2.64-1.824-4.208-2.402a13.283 13.283 0 01-4.83.827zM14.379 24c-1.567.578-2.967 1.422-4.207 2.402 1.504.5 3.114.82 4.79.837a13.182 13.182 0 014.25-2.408A13.372 13.372 0 0114.379 24zm19.241 0c1.569-.58 2.968-1.426 4.208-2.401-1.506-.503-3.113-.823-4.789-.84a13.225 13.225 0 01-4.25 2.41 13.304 13.304 0 014.83.83z" fill="#FFE400"/>
  <path fill-rule="evenodd" clip-rule="evenodd" d="M19.79 26.394a13.279 13.279 0 01-4.829.845c-1.273 1.072-2.298 2.338-3.121 3.675 1.585-.036 3.212-.277 4.792-.825a12.906 12.906 0 013.158-3.695zm8.42-4.789a13.331 13.331 0 014.83-.846c1.272-1.074 2.296-2.337 3.118-3.672-1.586.034-3.21.277-4.789.823a12.96 12.96 0 01-3.16 3.695zM22.329 33.33c.308 1.622.908 3.125 1.671 4.498.765-1.373 1.361-2.876 1.672-4.498A12.9 12.9 0 0124 28.79a12.85 12.85 0 01-1.671 4.54zm.007-4.83a13.01 13.01 0 01-3.147 3.706c-.272 1.625-.233 3.24.009 4.789 1.193-1.034 2.281-2.246 3.131-3.666a12.81 12.81 0 01.007-4.83zm-5.704 1.589c-.825 1.436-1.344 2.969-1.658 4.502 1.48-.566 2.921-1.34 4.215-2.385a12.86 12.86 0 011.686-4.536 13.275 13.275 0 01-4.243 2.419zm9.04-15.418c-.31-1.623-.908-3.128-1.672-4.5-.763 1.372-1.363 2.877-1.671 4.5A12.8 12.8 0 0124 19.211c.287-1.71.875-3.217 1.672-4.54zm-.009 4.83a13.002 13.002 0 013.149-3.707c.273-1.626.23-3.242-.01-4.79-1.192 1.033-2.281 2.246-3.13 3.667a12.767 12.767 0 01-.009 4.83zm5.706-1.591c.821-1.437 1.345-2.97 1.655-4.503-1.478.568-2.919 1.34-4.212 2.387a12.788 12.788 0 01-1.689 4.536 13.286 13.286 0 014.246-2.42z" fill="#FFE400"/>
  <path fill-rule="evenodd" clip-rule="evenodd" d="M22.336 19.501a12.949 12.949 0 00-3.147-3.707 12.87 12.87 0 001.685 4.535 13.197 13.197 0 00-4.242-2.42 12.896 12.896 0 003.158 3.695 13.324 13.324 0 00-4.829-.845 13.18 13.18 0 004.25 2.41 13.322 13.322 0 00-4.832.83c1.466.542 3.074.853 4.832.832a13.183 13.183 0 00-4.25 2.408 13.28 13.28 0 004.829-.846 12.901 12.901 0 00-3.158 3.696 13.266 13.266 0 004.242-2.42 12.862 12.862 0 00-1.685 4.537 13.01 13.01 0 003.147-3.706 12.811 12.811 0 00-.007 4.83A12.851 12.851 0 0024 28.79a12.906 12.906 0 001.672 4.54c.287-1.515.318-3.13-.009-4.83a13.06 13.06 0 003.149 3.706 12.783 12.783 0 00-1.69-4.536 13.315 13.315 0 004.247 2.419 12.979 12.979 0 00-3.159-3.695c1.648.614 3.266.863 4.83.845a13.297 13.297 0 00-4.25-2.412A13.281 13.281 0 0033.62 24a13.303 13.303 0 00-4.83-.831 13.227 13.227 0 004.25-2.41 13.331 13.331 0 00-4.83.845 12.96 12.96 0 003.159-3.694 13.29 13.29 0 00-4.246 2.42 12.79 12.79 0 001.689-4.536 13.005 13.005 0 00-3.149 3.707c.328-1.704.296-3.318.009-4.83A12.85 12.85 0 0024 19.21a12.802 12.802 0 00-1.671-4.54 12.814 12.814 0 00.007 4.83z" fill="#fff"/>
</svg>
