<svg xmlns="http://www.w3.org/2000/svg" fill="none" viewBox="0 0 32 32">
  <path d="M18.56 2.083l-.013 6.16-.013 6.16-.588-1.43v-.003l-.763 13.714c.75 1.82 1.15 2.791 1.155 2.795.004.003.43.025.946.047 1.56.066 3.494.21 4.964.367.341.037.63.055.652.04.022-.014.026-6.285.022-13.938l-.013-13.912h-6.35z" fill="url(#IGj_7OYVibka)"/>
  <path d="M7.074 2.064v13.928c0 7.66.008 13.934.021 13.945.013.011.563-.037 1.227-.099a127.06 127.06 0 012.037-.176c.7-.051 2.796-.165 3.034-.169.073 0 .077-.311.085-5.9l.013-5.9.507 1.232c.077.19.103.25.18.436l.762-13.71c-.162-.393-.077-.187-.26-.635-.622-1.514-1.15-2.794-1.172-2.853l-.042-.102H7.074v.003z" fill="url(#IGj_7OYVibkb)"/>
  <path d="M7.074 2.064l6.413 15.64v-.008l.507 1.233a4240.01 4240.01 0 004.338 10.55c.004.003.43.025.946.047 1.56.066 3.494.21 4.965.367.336.037.63.055.647.04L18.532 14.4v.004l-.588-1.43c-.575-1.398-.958-2.333-3.272-7.958-.623-1.514-1.15-2.794-1.172-2.853l-.043-.102h-3.192l-3.191.003z" fill="#E30A17"/>
  <defs>
    <linearGradient id="IGj_7OYVibka" x1="27.785" y1="22.91" x2="17.623" y2="27.373" gradientUnits="userSpaceOnUse">
      <stop stop-color="#B20610"/>
      <stop offset=".256" stop-color="#B20610"/>
      <stop offset="1" stop-color="#590004"/>
    </linearGradient>
    <linearGradient id="IGj_7OYVibkb" x1="3.992" y1="8.171" x2="14.982" y2="3.4" gradientUnits="userSpaceOnUse">
      <stop stop-color="#B20610"/>
      <stop offset=".256" stop-color="#B20610"/>
      <stop offset="1" stop-color="#590004"/>
    </linearGradient>
  </defs>
</svg>
