<svg xmlns="http://www.w3.org/2000/svg" fill="none" viewBox="0 0 48 48">
  <circle cx="24" cy="24" r="24" fill="#1ED760"/>
  <path d="M34.91 33.64c-.41.65-1.284.832-1.968.442-5.385-3.123-12.137-3.826-20.119-2.108-.765.156-1.53-.287-1.694-1.015a1.347 1.347 0 011.066-1.614c8.72-1.9 16.21-1.093 22.223 2.42.684.391.902 1.224.492 1.874zm2.789-5.934c-.52.807-1.613 1.04-2.46.572-6.151-3.617-15.527-4.658-22.798-2.55-.957.26-1.941-.234-2.215-1.12-.273-.91.246-1.847 1.203-2.107 8.31-2.394 18.643-1.25 25.723 2.889a1.648 1.648 0 01.547 2.316zm.245-6.194c-7.38-4.164-19.544-4.554-26.597-2.524-1.12.338-2.323-.26-2.679-1.354-.355-1.067.301-2.212 1.422-2.55 8.091-2.342 21.54-1.874 30.014 2.915 1.011.572 1.34 1.821.738 2.784-.574.99-1.886 1.328-2.898.729z" fill="#fff"/>
</svg>
