<svg xmlns="http://www.w3.org/2000/svg" fill="none" viewBox="0 0 42 13">
  <path d="M38.499.183h-2.595c-.784 0-1.388.244-1.75 1.036l-4.948 11.398h3.5s.603-1.524.724-1.89h4.284c.121.427.423 1.83.423 1.83h3.138L38.499.182zm-4.104 7.985c.302-.732 1.328-3.475 1.328-3.475 0 .061.302-.731.422-1.158l.242 1.097s.664 2.987.784 3.597h-2.776v-.061zm-4.948.365c0 2.56-2.293 4.267-5.853 4.267-1.509 0-2.957-.305-3.741-.67l.482-2.804.423.183c1.086.487 1.81.67 3.138.67.965 0 1.991-.366 1.991-1.219 0-.549-.422-.914-1.75-1.524-1.267-.61-2.957-1.585-2.957-3.352C21.18 1.646 23.534 0 26.852 0c1.268 0 2.354.244 3.018.549l-.483 2.681-.241-.243a6.429 6.429 0 00-2.535-.488c-1.267.061-1.87.61-1.87 1.097 0 .549.724.975 1.87 1.524 1.931.914 2.836 1.95 2.836 3.413z" fill="#3362AB"/>
  <path d="M0 .304L.06.06h5.19c.724 0 1.267.244 1.448 1.036l1.147 5.486C6.698 3.656 4.043 1.28 0 .304z" fill="#F9B50B"/>
  <path d="M15.146.183l-5.25 12.373h-3.56L3.319 2.194C5.49 3.596 7.3 5.79 7.965 7.314l.362 1.28L11.586.122h3.56v.06zm1.388-.061h3.319L17.74 12.556h-3.319L16.534.122z" fill="#3362AB"/>
</svg>
