<svg xmlns="http://www.w3.org/2000/svg" fill="none" viewBox="0 0 42 43">
  <g filter="url(#RMqrweo5DXAa)">
    <path fill-rule="evenodd" clip-rule="evenodd" d="M0 7.36c0-2.576 0-3.864.501-4.848a4.6 4.6 0 012.01-2.01C3.497 0 4.785 0 7.36 0h27.28c2.576 0 3.864 0 4.848.501a4.6 4.6 0 012.01 2.01C42 3.497 42 4.785 42 7.36v27.28c0 2.576 0 3.864-.501 4.848a4.6 4.6 0 01-2.01 2.01C38.503 42 37.215 42 34.64 42H7.36c-2.576 0-3.864 0-4.848-.501a4.6 4.6 0 01-2.01-2.01C0 38.503 0 37.215 0 34.64V7.36z" fill="#2C2C2E"/>
  </g>
  <path fill-rule="evenodd" clip-rule="evenodd" d="M13.27 25.646l-.165-.163-.205-.2-2.062-2.066a11.64 11.64 0 01-.2-.2 10.837 10.837 0 01-.086-.088l-.075-.076a7.303 7.303 0 01-.495-.543 1.905 1.905 0 01-.343-.523l-.026-.067a2.347 2.347 0 010-1.44l.024-.063c.084-.193.2-.37.345-.523.149-.187.31-.364.48-.531a4.68 4.68 0 01.177-.182l.093-.094.052-.053.028-.028.023-.022 2.052-2.05a7.34 7.34 0 01.212-.213l.085-.084.092-.09 2.3-2.296c.1-.104.192-.194.34-.338.095-.098.194-.194.305-.299a4.207 4.207 0 012.41-1.298c.397-.069.8-.104 1.189-.107a37.794 37.794 0 01.52-.009h6.486c.148 0 .264.002.504.01.405.002.808.037 1.203.106.43.072.847.209 1.235.407a4.215 4.215 0 011.831 1.83c.195.388.331.803.406 1.237.064.394.1.793.104 1.18.003.112.005.198.007.391l.002.133v7.412c0 .163-.003.332-.009.512-.005.4-.04.798-.105 1.198a4.45 4.45 0 01-.409 1.239 4.18 4.18 0 01-1.826 1.822 4.27 4.27 0 01-1.237.407 7.852 7.852 0 01-1.187.107c-.255.007-.371.009-.519.009h-.593v-1.385h.593c.13 0 .239-.002.491-.009.331-.004.662-.033.988-.087.29-.049.572-.142.836-.276.262-.133.5-.306.706-.512.208-.21.383-.45.514-.704.134-.267.228-.552.278-.84.053-.326.082-.656.086-.998.005-.18.008-.335.008-.483v-7.403l-.001-.126a19.557 19.557 0 00-.007-.378 6.65 6.65 0 00-.085-.98 2.821 2.821 0 00-2.34-2.339 6.035 6.035 0 00-.994-.086c-.242-.007-.35-.01-.48-.01H20.34a12.276 12.276 0 00-.471.01h-.026a5.967 5.967 0 00-.98.087 2.86 2.86 0 00-1.56.804c-.075.079-.104.11-.13.134-.1.094-.185.178-.278.274-.152.147-.236.23-.333.33l-2.335 2.337a.85.85 0 00-.07.062l-.054.054a8.952 8.952 0 00-.225.225l-2.07 2.067-.02.021-.023.023-.047.047a11.7 11.7 0 01-.102.103 3.286 3.286 0 00-.137.142 5.07 5.07 0 00-.433.476l-.05.057a.427.427 0 00-.076.103.962.962 0 000 .518.522.522 0 00.085.119c.163.197.301.349.453.5l.041.041.04.04.077.078.104.105c.048.05.068.07.095.096l2.059 2.062.202.197.134.133c.024.02.047.04.069.064l2.29 2.29c.094.096.189.19.34.337.075.077.15.151.256.252.03.027.036.033.103.105.023.024.04.043.05.051a2.817 2.817 0 001.546.79c.326.055.655.084.996.088a42.296 42.296 0 00.482.01h5.89v.692l.001.692h-5.892a13.222 13.222 0 01-.509-.01c-.4-.004-.8-.04-1.196-.106a4.3 4.3 0 01-1.24-.407 4.166 4.166 0 01-1.134-.849l-.041-.043a11.006 11.006 0 01-.291-.286 19.24 19.24 0 01-.345-.343l-2.238-2.237-.077-.073zm12.93-7.764a.597.597 0 00-.843 0l-2.27 2.27-2.271-2.266a.597.597 0 10-.843.845l2.27 2.265-2.263 2.264a.597.597 0 10.844.844l2.264-2.265 2.269 2.264a.596.596 0 00.841-.843l-2.267-2.264 2.27-2.27a.597.597 0 000-.843z" fill="#fff"/>
  <defs>
    <filter id="RMqrweo5DXAa" x="0" y="0" width="42" height="43" filterUnits="userSpaceOnUse" color-interpolation-filters="sRGB">
      <feFlood flood-opacity="0" result="BackgroundImageFix"/>
      <feColorMatrix in="SourceAlpha" values="0 0 0 0 0 0 0 0 0 0 0 0 0 0 0 0 0 0 127 0" result="hardAlpha"/>
      <feOffset dy="1"/>
      <feColorMatrix values="0 0 0 0 0 0 0 0 0 0 0 0 0 0 0 0 0 0 0.3 0"/>
      <feBlend in2="BackgroundImageFix" result="effect1_dropShadow"/>
      <feBlend in="SourceGraphic" in2="effect1_dropShadow" result="shape"/>
    </filter>
  </defs>
</svg>
