<svg xmlns="http://www.w3.org/2000/svg" fill="none" viewBox="0 0 11 11">
  <path d="M10.064 5.256c0-.376-.034-.735-.096-1.08H5.139v1.98H7.92a2.382 2.382 0 01-1.032 1.595v1.284h1.655c.967-.894 1.52-2.217 1.52-3.779z" fill="#4285F4"/>
  <path d="M6.889 7.75c-.461.312-1.055.493-1.749.493-1.34 0-2.478-.903-2.886-2.121H.547v1.325a5.14 5.14 0 004.593 2.83c1.389 0 2.555-.456 3.404-1.242L6.889 7.75z" fill="#34A853"/>
  <path d="M2.093 5.139a3.1 3.1 0 01.161-.983V2.83H.547A5.113 5.113 0 000 5.139c0 .83.197 1.614.547 2.308l1.707-1.325a3.1 3.1 0 01-.16-.983z" fill="#FABB05"/>
  <path d="M5.14 2.034c.758 0 1.437.261 1.972.771L8.58 1.339C7.69.51 6.527 0 5.14 0A5.141 5.141 0 00.547 2.83l1.707 1.326C2.662 2.938 3.8 2.034 5.14 2.034z" fill="#E94235"/>
</svg>
